<!--?xml version="1.0" encoding="utf-8"?-->
<!-- Generator: Adobe Illustrator 18.1.1, SVG Export Plug-In . SVG Version: 6.00 Build 0)  -->

<svg version="1.1" id="_x32_" xmlns="http://www.w3.org/2000/svg" xmlns:xlink="http://www.w3.org/1999/xlink" x="0px" y="0px" viewBox="0 0 512 512" style="width: 256px; height: 256px; opacity: 1;" xml:space="preserve">
<style type="text/css">
	.st0{fill:#4B4B4B;}
</style>
<g>
	<path class="st0" d="M437.24,30.516c-39.078-39.086-101.472-40.61-142.411-4.661c2.187,11.109,6.366,23.201,12.575,35.588
		c9.536,19.08,23.71,38.848,41.889,57.019c18.171,18.172,37.94,32.344,57.012,41.88c12.387,6.21,24.48,10.388,35.588,12.568
		C477.859,131.982,476.318,69.603,437.24,30.516z" style="fill: rgb(255, 255, 255);"></path>
	<path class="st0" d="M336.128,131.629c-19.524-19.523-34.844-40.799-45.37-61.862c-4.638-9.282-8.291-18.516-11.003-27.577
		c-30.287,40.816-26.937,98.72,10.069,135.734c37.014,37.014,94.935,40.365,135.734,10.077c-9.052-2.72-18.286-6.374-27.576-11.011
		C376.926,166.455,355.659,151.143,336.128,131.629z" style="fill: rgb(255, 255, 255);"></path>
	<path class="st0" d="M244.044,139.445L77.505,323.367c-15.475,17.106-14.828,43.331,1.475,59.642l5.768,5.759
		c16.304,16.304,42.536,16.959,59.634,1.475l183.922-166.537c-19.498-5.408-37.915-15.73-53.227-31.034
		C259.782,177.368,249.451,158.951,244.044,139.445z" style="fill: rgb(255, 255, 255);"></path>
	<path class="st0" d="M229.698,431.058c-20.366-0.017-40.823,7.799-56.356,23.34l-22.333,22.324
		c-9.888,9.881-22.767,14.796-35.736,14.804c-12.977-0.008-25.855-4.908-35.752-14.804c-9.896-9.912-14.796-22.792-14.804-35.785
		c0.008-12.953,4.924-25.807,14.804-35.703l-14.468-14.468v-0.008c-13.838,13.821-20.826,32.042-20.809,50.18
		c-0.017,18.138,6.939,36.407,20.801,50.253c13.853,13.862,32.09,20.818,50.228,20.809c18.154,0.008,36.375-6.964,50.212-20.792
		l22.325-22.333c11.601-11.584,26.691-17.335,41.888-17.352c15.198,0.017,30.288,5.768,41.889,17.352
		c10.372,10.372,16.058,23.545,17.155,37.095l20.4-1.638c-1.45-18.187-9.176-36.039-23.078-49.933
		C270.521,438.857,250.057,431.041,229.698,431.058z" style="fill: rgb(255, 255, 255);"></path>
</g>
</svg>
